<svg xmlns="http://www.w3.org/2000/svg" viewBox="0 0 304.36 215.81"><defs><style>.cls-1{opacity:0.8;}.cls-2{fill:#ff9f48;}.cls-3{fill:#fee5d5;}.cls-3,.cls-4,.cls-5,.cls-6{stroke:#f8c751;stroke-miterlimit:10;stroke-width:2px;}.cls-4{fill:none;}.cls-5{fill:#fdcbaa;}.cls-6{fill:#f49b69;}.cls-7{font-size:18.57px;fill:#296b9b;font-family:GenJyuuGothic-Medium, GenJyuuGothic Medium;font-weight:500;letter-spacing:0.02em;}</style></defs><title>score1</title><g id="圖層_2" data-name="圖層 2"><g id="圖層_1-2" data-name="圖層 1"><g class="cls-1"><circle class="cls-2" cx="151.9" cy="107.77" r="106.77"/><path class="cls-3" d="M230.46,35.47A107.3,107.3,0,0,0,197.11,11l-17-6.23A106.59,106.59,0,0,0,151.9,1V107.77Z"/><path class="cls-4" d="M151.9,107.77l77.81-73.1a106.74,106.74,0,1,0-32.63,169.85Z"/><path class="cls-5" d="M197.08,204.52A106.78,106.78,0,0,0,229.71,34.67l-77.81,73.1Z"/><path class="cls-6" d="M45.4,121.25A106.77,106.77,0,0,0,197,204.54L151.36,108Z"/></g><text class="cls-7" transform="translate(137.42 47.9)">簡報美學 (20%)</text><text class="cls-7" transform="translate(174.19 131.51)">簡報內容 (35%)</text><text class="cls-7" transform="translate(38.63 186.6)">網路評分 (20%)</text><text class="cls-7" transform="translate(0 88.14)">肢體口語 (25%)</text></g></g></svg>