<svg xmlns="http://www.w3.org/2000/svg" viewBox="0 0 287.79 287.79"><defs><style>.cls-1,.cls-4{fill:#1fafd2;}.cls-2,.cls-3{fill:none;stroke:#1fafd2;stroke-miterlimit:10;}.cls-3{stroke-width:2px;}.cls-4{font-size:33.45px;font-family:GenJyuuGothic-P-Medium, GenJyuuGothic P-Medium;font-weight:500;}</style></defs><title>topic3</title><g id="圖層_2" data-name="圖層 2"><g id="圖層_1-2" data-name="圖層 1"><path class="cls-1" d="M256.83,112.75a98.1,98.1,0,0,1-17.43,19.8c-5.91,5.17-11.83,10.47-18.39,14.71-7.17,4.64-15,8.28-22.69,12.06a93.17,93.17,0,0,1-11.9,4.53A137.26,137.26,0,0,1,162,169.13a136,136,0,0,1-38.64-.42A142.25,142.25,0,0,1,90,159.57a135.71,135.71,0,0,1-30.8-17.75A139.5,139.5,0,0,1,32,114.4a2.68,2.68,0,0,1,.07-3.81A144.34,144.34,0,0,1,55.77,86.22c6.91-5.47,14-10.69,21.92-14.56,6.41-3.11,12.8-6.43,19.51-8.75,8.92-3.09,18.06-5.72,27.59-6.41,5.89-.43,11.76-1.35,17.65-1.43a142.65,142.65,0,0,1,31.33,3.29,131.77,131.77,0,0,1,29.45,9.78,139.44,139.44,0,0,1,33.42,22.31A142.29,142.29,0,0,1,256.83,112.75ZM134.77,103l.65-.78c1.8,1.17,3.47,2.68,5.43,3.4s2.43,2,3.36,3.47a14.8,14.8,0,0,0,4.35,4.39,61,61,0,0,0,8.27,4.18c.65.29,2.14.09,2.34-.32a11.24,11.24,0,0,0,1.52-4.91c-.07-2,.59-2.39,2.27-2.44,2.43-.07,3.07,1.73,3.48,3.43a16.41,16.41,0,0,0,7.48,10.71,15.75,15.75,0,0,0,2.87,1l.61-.66a29.8,29.8,0,0,0-2-4.48c-1.16-1.77-.87-3.27-.06-5,1.11-2.43,3.53-2.47,5.48-3.34,2.39-1.07,2.73-2.06,1.6-4.31a13.14,13.14,0,0,1-.71-3.25l.67-.39a8.44,8.44,0,0,1,1.72,1.18,3.47,3.47,0,0,0,4.65.69,4.28,4.28,0,0,0,1.07-3.87,75.68,75.68,0,0,0-5.14-12.91,43.92,43.92,0,0,0-16.13-16.43,43.17,43.17,0,0,0-17.37-6.28c-7.18-.85-14.39-.82-21.32,1.55-3.76,1.29-7.33,3.13-11,4.72l.27.77c.55,0,1.1,0,1.65,0,3.49,0,7-.25,10.46-.12,1.63.07,2.62,1,2.59,3,0,1.26,1.2,2.6,2,3.79a13.75,13.75,0,0,0,2.24,2l-8.92,4.87-.67-1,5.44-4a4.12,4.12,0,0,0-2.62-.69c-4.22.57-8.46,1.06-12.64,1.89a17.93,17.93,0,0,0-5.5,2.31c-1.55.92-1.22,2.45,0,3.46,3.32,2.84,7.28,2.55,10.23-.58.35-.37.75-.87,1.19-.93a5.31,5.31,0,0,1,1.79.33,8.78,8.78,0,0,1-.87,1.26,13.73,13.73,0,0,1-2.79,2.51c-.93.52-2.37,1-3.21.69-3.89-1.67-7.26-1-10.59,1.39-1.21.87-2.28,1.33-2.21,3.22,0,1.28-1.26,1.57-2.73,1.32a9.16,9.16,0,0,0-4.58.51c-.56.22-.89,1.9-.73,2.81.11.63,1.39,1.64,1.91,1.51a46.3,46.3,0,0,0,8.75-2.82c2.83-1.36,2.7-1.65,4.31,1.15a27.41,27.41,0,0,0,1.54,2.63c.32.41.95.57,2,1.19-.56-1.9-.9-3-1.24-4.16,1.62,1.55,3,3.09,5.43,1.85.17-.09,1.12.81,1.25,1.36a2.19,2.19,0,0,1-.59,1.74c-2.25,2.29-3.85,2.37-7.2,1.15a93.87,93.87,0,0,0-11.15-3.46,5.3,5.3,0,0,0-4.16,1.23,9.15,9.15,0,0,0-3.13,6.93,52.54,52.54,0,0,0,3,17.58c1.14,3.14,1.88,3.45,4.93,1.84,4.08-2.16,6-1.31,7.24,3.17a2.16,2.16,0,0,0,.39.59c2.79.17,2.77.17,3.13,3.07.08.65.23,1.59.67,1.85,1.62.94,1.29,2.4,1.39,3.82a14.67,14.67,0,0,0,.66,3.75c.57,1.67,1.68,2.24,3.61,1.79,4.27-1,6.55-3.61,7.41-7.78a14.88,14.88,0,0,1,1.32-2.73c.76-1.66,2.09-3.34,2.07-5a11.63,11.63,0,0,1,3.76-9.27c2.27-2.17,1.81-3.61-1-5.1-3.55-1.87-5.53-5.18-5-8.85,1.51,1.64,2.91,3.07,4.2,4.59,1.77,2.09,5,2.15,7.3.06,1.88-1.73,1.69-3.35-.57-5.59C138.82,107.23,136.81,105.12,134.77,103Zm36.76,41.86c.64,1.14,5.42,2.14,6.49,1,4.39-4.58,8.1-9.68,9.86-15.84.41-1.44-.79-3.34-1.25-5l-3.24,1.4c-.31.13-.61.27-.93.37-4,1.2-7.92,2.46-11.91,3.58-3.57,1-6.74,6.31-5.64,9.67.66,2,1.38,4,2.22,6.4Zm1.63,6.08a18.05,18.05,0,0,0-1.55-1.2,3.19,3.19,0,0,0-1-.28,11.13,11.13,0,0,0-10.09,3.11,4,4,0,0,1-4.55,1.22c-4.22-1.33-8.47-2.6-12.79-3.56a12.67,12.67,0,0,0-11.78,3.4,5.28,5.28,0,0,0-1.31,3.79c0,.67,1.67,1.63,2.68,1.78,6,.86,12,2,18.1.55,3.39-.79,6.92-1.26,10.11-2.55C165,155.61,168.78,153.28,173.16,151Zm14.33-44.13a22.22,22.22,0,0,1-.72,4.59c-1.59,4-.23,8.75,4,11.55.25-4.34.68-8.31.61-12.28C191.38,108.5,189.79,107.08,187.49,106.85Zm-88.17-11c1.47-.34,2.27-.3,2.76-.68q4.13-3.13,8.08-6.5A1.72,1.72,0,0,0,110,87c-1-.94-5.4-.35-6.16.87C102.38,90.21,101.09,92.66,99.32,95.81Zm34.1,41.57.72.13c.28-.3.68-.55.81-.9,1.25-3.24,2.48-6.49,3.61-9.77.14-.41-.31-1.46-.54-1.48a3.48,3.48,0,0,0-2.08.47c-2.22,1.5-1.84,4.06-2.23,6.25A42.37,42.37,0,0,0,133.42,137.38Zm-21.49-59c-2.24.39-5.68,3.38-6,5.08a1.53,1.53,0,0,0,.57,1.25c2.11,1.32,3.56-.35,5-1.37A3.74,3.74,0,0,0,113.13,81C113.19,80.12,112.36,79.22,111.93,78.36Zm39.15,40c1.8,1.91,3.13,2.93,5,2.15.41-.16.94-1.16.83-1.29-.67-.81-1.44-1.94-2.31-2.07S152.55,117.85,151.08,118.4Zm29.19,7.32L183,124a17.9,17.9,0,0,0-3.18-2.51c-.29-.15-1.3,1.14-2,1.77Zm-.46-5.65c.11-2-.65-3.23-2.68-3.18-.4,0-1.22,1.14-1.09,1.44C176.71,119.93,177.82,121,179.81,120.07Z"/><path class="cls-2" d="M253,115a97.81,97.81,0,0,1-17.42,19.81c-5.91,5.16-11.83,10.46-18.39,14.71-7.17,4.63-15,8.28-22.69,12.05a90.27,90.27,0,0,1-11.9,4.53,138.16,138.16,0,0,1-24.45,5.29,136.32,136.32,0,0,1-38.64-.42,143.23,143.23,0,0,1-33.38-9.14,135.75,135.75,0,0,1-30.8-17.76,139.17,139.17,0,0,1-27.17-27.41,2.68,2.68,0,0,1,.07-3.81A144.4,144.4,0,0,1,51.9,88.45c6.91-5.46,14-10.69,21.92-14.55,6.41-3.12,12.8-6.44,19.51-8.76,8.92-3.09,18-5.71,27.59-6.4,5.89-.43,11.76-1.35,17.65-1.44a142.65,142.65,0,0,1,31.33,3.29,131.77,131.77,0,0,1,29.45,9.78,139.73,139.73,0,0,1,33.42,22.31A142.68,142.68,0,0,1,253,115Zm-122-9.71.65-.78c1.8,1.17,3.47,2.69,5.43,3.41s2.43,2,3.36,3.47a15,15,0,0,0,4.35,4.39,62.21,62.21,0,0,0,8.27,4.18c.65.28,2.14.09,2.34-.32a11.28,11.28,0,0,0,1.52-4.91c-.07-2,.59-2.39,2.27-2.45,2.43-.07,3.07,1.74,3.48,3.44a16.39,16.39,0,0,0,7.48,10.7,14.39,14.39,0,0,0,2.87,1l.61-.65a29.92,29.92,0,0,0-2-4.49c-1.17-1.77-.87-3.27-.06-5,1.11-2.44,3.53-2.47,5.48-3.35,2.38-1.06,2.73-2.05,1.6-4.31a13.14,13.14,0,0,1-.71-3.25l.67-.39a8.86,8.86,0,0,1,1.72,1.18,3.46,3.46,0,0,0,4.65.69,4.28,4.28,0,0,0,1.07-3.87A76,76,0,0,0,180.77,91a43.89,43.89,0,0,0-16.13-16.42,43.34,43.34,0,0,0-17.37-6.29c-7.18-.84-14.39-.81-21.32,1.56-3.76,1.29-7.33,3.12-11,4.71l.27.78c.55,0,1.1,0,1.65,0,3.49-.06,7-.25,10.46-.12,1.63.06,2.62.94,2.59,3,0,1.25,1.2,2.59,2,3.78a12.91,12.91,0,0,0,2.24,2L125.29,89l-.68-1,5.45-4a4.12,4.12,0,0,0-2.62-.69c-4.22.57-8.47,1.06-12.64,1.89a17.93,17.93,0,0,0-5.5,2.31c-1.55.92-1.22,2.44,0,3.46,3.32,2.84,7.28,2.54,10.23-.58.35-.37.75-.87,1.18-.94a5.58,5.58,0,0,1,1.8.33,8.89,8.89,0,0,1-.87,1.27,14.35,14.35,0,0,1-2.79,2.51c-.93.52-2.37,1.05-3.21.69-3.89-1.67-7.26-1-10.59,1.39-1.21.86-2.28,1.32-2.21,3.22,0,1.28-1.26,1.56-2.73,1.32a9.16,9.16,0,0,0-4.58.51c-.56.22-.9,1.9-.73,2.81.11.63,1.39,1.63,1.91,1.5a46.66,46.66,0,0,0,8.74-2.81c2.84-1.37,2.71-1.65,4.32,1.15a24.31,24.31,0,0,0,1.54,2.62c.31.41,1,.58,2,1.19-.56-1.89-.9-3-1.24-4.16,1.62,1.56,3,3.1,5.43,1.85.17-.08,1.12.82,1.25,1.37a2.21,2.21,0,0,1-.59,1.74c-2.25,2.29-3.85,2.37-7.2,1.14a93.82,93.82,0,0,0-11.15-3.45,5.29,5.29,0,0,0-4.16,1.22,9.18,9.18,0,0,0-3.13,6.93,52.5,52.5,0,0,0,3,17.58c1.14,3.15,1.88,3.45,4.93,1.84,4.07-2.15,6-1.3,7.24,3.18a2.33,2.33,0,0,0,.39.59c2.79.16,2.76.16,3.13,3.06.08.65.23,1.6.67,1.86,1.62.94,1.28,2.39,1.39,3.82a14.83,14.83,0,0,0,.66,3.75c.57,1.66,1.68,2.23,3.61,1.78,4.27-1,6.55-3.6,7.41-7.77a14.26,14.26,0,0,1,1.32-2.73c.76-1.66,2.09-3.35,2.07-5a11.63,11.63,0,0,1,3.76-9.26c2.27-2.17,1.81-3.62-1-5.1-3.55-1.87-5.53-5.19-5-8.86,1.51,1.65,2.91,3.08,4.2,4.6,1.77,2.08,5,2.14,7.3,0,1.88-1.72,1.69-3.35-.57-5.59C135,109.46,132.94,107.36,130.9,105.27Zm36.76,41.87c.64,1.14,5.42,2.14,6.49,1,4.39-4.58,8.1-9.68,9.86-15.83.41-1.44-.79-3.35-1.25-5l-3.24,1.39c-.31.13-.61.28-.93.38-4,1.2-7.92,2.45-11.91,3.58-3.57,1-6.74,6.3-5.64,9.67.66,2,1.38,4,2.22,6.4Zm1.63,6.08a14.28,14.28,0,0,0-1.55-1.2,3.21,3.21,0,0,0-1-.29,11.13,11.13,0,0,0-10.09,3.11,4,4,0,0,1-4.56,1.22c-4.21-1.32-8.46-2.59-12.78-3.55a12.67,12.67,0,0,0-11.78,3.39,5.31,5.31,0,0,0-1.31,3.8c0,.67,1.67,1.63,2.68,1.77,6,.87,12,2,18.1.56,3.39-.8,6.92-1.26,10.1-2.55C161.16,157.84,164.91,155.51,169.29,153.22Zm14.33-44.14a22.21,22.21,0,0,1-.72,4.6c-1.59,4-.23,8.75,4,11.55.25-4.35.68-8.32.61-12.28C187.51,110.73,185.92,109.32,183.62,109.08Zm-88.17-11c1.47-.35,2.27-.31,2.76-.68,2.75-2.1,5.45-4.26,8.07-6.5a1.71,1.71,0,0,0-.15-1.65c-1-.94-5.4-.34-6.16.87C98.51,92.44,97.22,94.9,95.45,98.05Zm34.1,41.57.72.12c.28-.3.68-.54.81-.89,1.25-3.25,2.48-6.49,3.61-9.78.14-.4-.31-1.45-.54-1.47a3.41,3.41,0,0,0-2.08.46c-2.22,1.5-1.84,4.06-2.23,6.25A42.53,42.53,0,0,0,129.55,139.62Zm-21.49-59c-2.24.4-5.69,3.39-6,5.08a1.53,1.53,0,0,0,.57,1.25c2.11,1.33,3.56-.35,5-1.36a3.73,3.73,0,0,0,1.59-2.38C109.32,82.35,108.49,81.46,108.06,80.59Zm39.15,40c1.8,1.92,3.13,2.93,5,2.16.41-.17.94-1.16.83-1.3-.67-.8-1.44-1.94-2.31-2.07S148.68,120.08,147.21,120.63ZM176.4,128l2.76-1.73a18.31,18.31,0,0,0-3.17-2.51c-.29-.14-1.3,1.14-2,1.77C174.75,126.25,175.48,127,176.4,128Zm-.46-5.64c.11-2-.65-3.24-2.68-3.18-.4,0-1.22,1.14-1.1,1.43C172.84,122.16,174,123.22,175.94,122.31Z"/><rect class="cls-3" x="1" y="1" width="285.79" height="285.79" rx="50.18"/><text class="cls-4" transform="translate(78.48 235.75)"><tspan xml:space="preserve">氣候行動  </tspan></text></g></g></svg>