<?xml version="1.0" encoding="utf-8"?>
<!-- Generator: Adobe Illustrator 19.0.0, SVG Export Plug-In . SVG Version: 6.00 Build 0)  -->
<svg version="1.1" id="圖層_1" xmlns="http://www.w3.org/2000/svg" xmlns:xlink="http://www.w3.org/1999/xlink" x="0px" y="0px"
	 viewBox="0 0 600 600" style="enable-background:new 0 0 600 600;" xml:space="preserve">
<style type="text/css">
	.st0{opacity:0.9;}
	.st1{fill:#FF9F48;}
	.st2{fill:none;stroke:#F8C751;stroke-width:2;stroke-miterlimit:10;}
	.st3{fill:#FDCBAA;stroke:#F8C751;stroke-width:2;stroke-miterlimit:10;}
	.st4{fill:#F49B69;stroke:#F8C751;stroke-width:2;stroke-miterlimit:10;}
	.st5{fill:#FEE5D5;stroke:#F8C751;stroke-width:2;stroke-miterlimit:10;}
	.st6{fill:#296B9B;}
	.st7{font-family:'GenJyuuGothic-Medium';}
	.st8{font-size:18.567px;}
</style>
<g id="XMLID_42_">
	<g id="XMLID_2742_" class="st0">
		<circle id="XMLID_2734_" class="st1" cx="282.5" cy="356" r="106.8"/>
		<g id="XMLID_11740_">
			<path id="XMLID_55_" class="st2" d="M282.4,356l45.2,96.8c-13.7,6.4-29,10-45.2,10c-59,0-106.8-47.8-106.8-106.8
				s47.8-106.8,106.8-106.8l-0.5,106.8"/>
			<path id="XMLID_12547_" class="st3" d="M286,462.8c40.1-1.3,77.8-25.4,94.7-64.7c11.1-26,11.1-54,2.1-78.6l-101.7,40.9L286,462.8
				z"/>
			<path id="XMLID_11737_" class="st4" d="M179.3,326.6c-11.1,38.6,0.2,81.9,32.5,110c21.3,18.6,70.7,45.1,125.2,11.3l-56.4-89
				L179.3,326.6z"/>
		</g>
		<g id="XMLID_11739_">
			<path id="XMLID_12499_" class="st5" d="M383.2,320.5c-4.6-13-11.7-25.2-21-35.6L349,272.5c-7.3-5.8-41.6-25.2-68.5-23.2l2,109.6
				L383.2,320.5z"/>
		</g>
	</g>
	<g id="XMLID_16254_">
		<text id="XMLID_125_" transform="matrix(1 0 0 1 272.9675 296.1658)" class="st6 st7 st8">觀眾投票 (20%)</text>
	</g>
	<g id="XMLID_12917_">
		<text id="XMLID_138_" transform="matrix(1 0 0 1 304.738 379.774)" class="st6 st7 st8">肢體與口語表達 (25%)</text>
	</g>
	<g id="XMLID_16229_">
		<text id="XMLID_165_" transform="matrix(1 0 0 1 126.6824 406.3668)" class="st6 st7 st8">簡報內容 (35%)</text>
	</g>
	<g id="XMLID_16232_">
		<text id="XMLID_166_" transform="matrix(1 0 0 1 130.5483 312.5248)" class="st6 st7 st8">簡報美學(20%)</text>
	</g>
</g>
</svg>
