<?xml version="1.0" encoding="utf-8"?>
<!-- Generator: Adobe Illustrator 19.0.0, SVG Export Plug-In . SVG Version: 6.00 Build 0)  -->
<svg version="1.1" id="圖層_1" xmlns="http://www.w3.org/2000/svg" xmlns:xlink="http://www.w3.org/1999/xlink" x="0px" y="0px"
	 viewBox="0 0 600 600" style="enable-background:new 0 0 600 600;" xml:space="preserve">
<style type="text/css">
	.st0{opacity:0.8;fill:#FF9F48;}
	.st1{fill:#FEE5D5;stroke:#F8C751;stroke-width:2;stroke-miterlimit:10;}
	.st2{fill:none;stroke:#F8C751;stroke-width:2;stroke-miterlimit:10;}
	.st3{fill:#FDCBAA;stroke:#F8C751;stroke-width:2;stroke-miterlimit:10;}
	.st4{fill:#F49B69;stroke:#F8C751;stroke-width:2;stroke-miterlimit:10;}
	.st5{fill:#296B9B;}
	.st6{font-family:'GenJyuuGothic-Medium';}
	.st7{font-size:18.567px;}
</style>
<g id="XMLID_11633_">
	<circle id="XMLID_11795_" class="st0" cx="312.9" cy="355.9" r="106.8"/>
	<g id="XMLID_11788_">
		<path id="XMLID_11792_" class="st1" d="M413.5,319.8c-16.9-40.6-42.6-54.8-55.3-60.7l-17-6.2c-9-2.5-18.5-3.8-28.3-3.8v106.8
			L413.5,319.8z"/>
	</g>
	<g id="XMLID_11716_">
		<path id="XMLID_67_" class="st2" d="M312.9,356.8V249.1c-59,0-106.8,47.8-106.8,106.8c0,59,47.8,106.8,106.8,106.8
			c16.2,0,31.5-3.6,45.2-10l-44.8-95.8H312.9z"/>
		<path id="XMLID_11752_" class="st3" d="M315.6,464.2c40.1-0.9,78.1-24.5,95.3-63.7c11.4-25.9,11.7-53.9,3-78.6l-100.7,35.5
			L315.6,464.2z"/>
		<g id="XMLID_66_">
			<path id="XMLID_70_" class="st4" d="M312.8,356.8l-103.9,24.7c4.9,20.6,15.9,40,33,55.2c21.2,18.8,47.7,27.6,73.9,26.9
				L312.8,356.8z"/>
		</g>
	</g>
	<g id="XMLID_11691_">
		<text id="XMLID_177_" transform="matrix(1 0 0 1 306.9667 312.5251)" class="st5 st6 st7">觀眾投票 (15%)</text>
	</g>
	<g id="XMLID_11669_">
		<text id="XMLID_175_" transform="matrix(1 0 0 1 335.2372 379.6335)" class="st5 st6 st7">肢體與口語表達 (35%)</text>
	</g>
	<g id="XMLID_11665_">
		<text id="XMLID_176_" transform="matrix(1 0 0 1 202.1816 447.7263)" class="st5 st6 st7">簡報美學 (20%)</text>
	</g>
	<g id="XMLID_11660_">
		<text id="XMLID_178_" transform="matrix(1 0 0 1 161.0478 336.2625)" class="st5 st6 st7">簡報內容 (30%)</text>
	</g>
</g>
</svg>
