<svg xmlns="http://www.w3.org/2000/svg" viewBox="0 0 287.79 287.79"><defs><style>.cls-1,.cls-4{fill:none;stroke:#fa7d2b;stroke-miterlimit:10;}.cls-1{stroke-width:2px;}.cls-2{font-size:33.45px;font-family:GenJyuuGothic-P-Medium, GenJyuuGothic P-Medium;font-weight:500;}.cls-2,.cls-3{fill:#fa7d2b;}</style></defs><title>topic1</title><g id="圖層_2" data-name="圖層 2"><g id="圖層_1-2" data-name="圖層 1"><rect class="cls-1" x="1" y="1" width="285.79" height="285.79" rx="50.18"/><text class="cls-2" transform="translate(68.3 236.18)">減少不平等 </text><path class="cls-3" d="M121.17,87.11c.89,0,1.63-.12,2.38-.12,14.43,0,28.87.05,43.3,0,2.17,0,2.73.67,2.65,2.72-.14,4,0,7.93,0,12.1H121.17Z"/><path class="cls-3" d="M145.18,117.57c7.18,0,14.35.08,21.53,0,2.24,0,2.9.7,2.79,2.88-.16,3.43-.09,6.87,0,10.3,0,1.48-.51,2-2,2q-22.22,0-44.43,0c-1.63,0-2.1-.6-2.06-2.15.08-3.51.12-7,0-10.54-.07-1.89.56-2.52,2.46-2.5C130.67,117.63,137.93,117.57,145.18,117.57Z"/><path class="cls-3" d="M122.82,65.09l22.51-22.44L167.7,65.09Z"/><path class="cls-3" d="M189.89,87l22.32,22.81-22.32,22.33Z"/><path class="cls-3" d="M78.21,109.64l22.32-22.31v44.85Z"/><path class="cls-3" d="M122.62,154.48h45c-7.53,7.53-15.06,15-22.51,22.48Z"/><path class="cls-4" d="M118.53,85.49c.9,0,1.64-.12,2.39-.12,14.43,0,28.87,0,43.3-.05,2.17,0,2.72.67,2.65,2.73-.14,4,0,7.93,0,12.09h-48.3Z"/><path class="cls-4" d="M142.55,116c7.18,0,14.35.07,21.53,0,2.24,0,2.9.7,2.79,2.88-.16,3.43-.09,6.87,0,10.3,0,1.48-.51,2-2,2q-22.22,0-44.43,0c-1.64,0-2.1-.6-2.06-2.15.08-3.51.11-7,0-10.54-.07-1.89.56-2.52,2.46-2.5C128,116,135.3,116,142.55,116Z"/><path class="cls-4" d="M120.19,63.47,142.69,41l22.38,22.44Z"/><path class="cls-4" d="M187.26,85.42l22.32,22.81-22.32,22.33Z"/><path class="cls-4" d="M75.58,108,97.9,85.71v44.86Z"/><path class="cls-4" d="M120,152.86h45l-22.51,22.48Z"/></g></g></svg>