<svg xmlns="http://www.w3.org/2000/svg" viewBox="0 0 287.79 287.79"><defs><style>.cls-1,.cls-5{fill:#296b9b;}.cls-2{opacity:0.69;}.cls-3,.cls-4{fill:none;stroke:#296b9b;stroke-miterlimit:10;}.cls-4{stroke-width:2px;}.cls-5{font-size:33.45px;font-family:GenJyuuGothic-P-Medium, GenJyuuGothic P-Medium;font-weight:500;}</style></defs><title>topic4</title><g id="圖層_2" data-name="圖層 2"><g id="圖層_1-2" data-name="圖層 1"><path class="cls-1" d="M190.07,167c-11.23-.37-22-1-32.85-1-19.18.09-38.35.6-57.52,1-6.52.13-13,.36-19.55.54-1,0-2,0-3.31,0V156.77l51.36,1.31V141.42c-16.2-.08-28.57-9.36-41.87-17.52a27.74,27.74,0,0,0,18.43-2.18c2.88-1.44,5.38-3.61,8.21-5.19,4-2.21,8.08-4.19,11.88-6.13a30.87,30.87,0,0,1-14-6A31.54,31.54,0,0,1,100,87.94c-2.23-8-4.09-16.19-6.59-24.14-1.59-5.06-4-9.93-9.8-12.72,6.93-1.37,13-.38,19,1.12,11.1,2.76,19.9,9.24,27.78,17.14,5.6,5.62,11.83,10,19.73,11.72,6.59,1.45,12.41-.72,17.59-4.26,4.89-3.33,9.14-7.58,13.82-11.25A29.8,29.8,0,0,1,188,61.71c5.71-2.49,9.91.09,13.44,4.46a8.51,8.51,0,0,0,1.12,1.2,9.93,9.93,0,0,0,1.52.83c2.3-10.49,11.21-15.88,16.92-23.7l.86.57A20.12,20.12,0,0,1,220.07,48c-3.67,4.3-7.61,8.4-11.06,12.87-1.66,2.15-2.57,4.93-3.54,7.53-.21.57.62,1.7,1.22,2.36a34.16,34.16,0,0,0,3,2.71c-.06,0-.19.22-.35.24-4.92.44-5,.45-4.09,5.4.51,2.73,1.39,5.41,2.11,8.15-1.53-.17-1.57-.16-2.85-5.6-.53-2.27-.86-4.6-1.28-6.88-7,.06-14.51,4.64-15.7,11.82a116.84,116.84,0,0,0-1.66,13.93c-.29,6.82-.75,13.62-4.23,19.63a32,32,0,0,1-13.1,12.78,44,44,0,0,1-5.43,2.76c-6.44,2.22-13,4.26-19.83,6.49,0,4.61,0,9.69.08,14.77a2.37,2.37,0,0,0,1.67,1.58c14.42-.1,28.91,1.17,43.21-1.66a2.71,2.71,0,0,0,1.7-1.9c.23-2.15,0-4.34.12-6.51.06-1.84.86-2.91,3-2.89,8.88.07,17.76,0,26.65,0,2.6,0,3.71,1.21,3.69,3.83-.07,8.59-.11,17.19,0,25.79,0,2.68-1.21,3.55-3.54,3.55-9,0-18,0-26.93,0-2,0-2.94-.89-2.9-2.93C190.11,173.2,190.07,170.57,190.07,167Zm-50.95-25.38a48,48,0,0,0-5,.06c-.52.06-1.36.83-1.37,1.29-.1,5-.06,9.93-.06,15.14l6.43.3Z"/><path class="cls-1" d="M206.57,190.66c-4.81,0-9.62,0-14.43,0-3.34,0-5.42-1.57-5.19-4.08s1.22-4.55,5.32-4.55c9.53,0,19.06,0,28.59,0a5.4,5.4,0,0,1,5.24,3.13c1.26,2.59-1.06,5.41-4.53,5.49-5,.11-10,0-15,0Z"/><path class="cls-1" d="M206.77,142c-5,0-10,0-15,0-3.31,0-4.94-1.49-4.84-4.16s2-4.18,5.07-4.19q14.73,0,29.47,0c2.65,0,4.93,2.12,4.88,4.39-.06,2.51-1.71,3.92-4.82,3.95C216.6,142.05,211.69,142,206.77,142Z"/><path class="cls-1" d="M63.62,161.63c.6-2.08.76-4.49,2-6.11.78-1.05,3.23-1.53,4.7-1.21a4.82,4.82,0,0,1,2.95,3.24,33.56,33.56,0,0,1,.2,8.73c-.29,3-2,3.8-5.91,3.52-2.8-.21-3.27-2.12-3.36-4.34,0-1.23,0-2.46,0-3.68Z"/><path class="cls-1" d="M235.15,30.76c0,7.8-4,12.11-11.75,11.75C222.26,35,228.06,29.4,235.15,30.76Z"/><path class="cls-1" d="M205.54,57.52c-8.24-5.1-7.26-10.72-3.31-15.28C208.51,45.12,209.7,52.44,205.54,57.52Z"/><path class="cls-1" d="M211.35,32.2c6,3,7.47,7.81,4.4,13.75-.79,1.54-1.36,1.67-2.68.55C208.05,42.23,207.5,38,211.35,32.2Z"/><path class="cls-1" d="M226.09,63.65c-5.81,4.88-10.17,3.69-14-1.47C216.39,57,222,58,226.09,63.65Z"/><path class="cls-1" d="M234.57,51.78c-2.47,3.48-5.71,4.9-9.6,3.88-1.56-.4-2.87-1.73-4.29-2.63a16.36,16.36,0,0,1,2.94-2.94C227.78,47.6,231,48.19,234.57,51.78Z"/><g class="cls-2"><path class="cls-3" d="M187.89,165.49c-11.23-.37-22-1.05-32.86-1-19.17.08-38.34.59-57.51,1-6.52.12-13,.36-19.55.53-1,0-2,0-3.31,0V155.31L126,156.62V140c-16.2-.07-28.57-9.35-41.87-17.52a27.68,27.68,0,0,0,18.43-2.18c2.88-1.44,5.38-3.61,8.2-5.18,4-2.22,8.08-4.19,11.89-6.14a30.74,30.74,0,0,1-14-6,31.58,31.58,0,0,1-10.88-16.5c-2.24-8-4.09-16.19-6.59-24.14-1.59-5.07-3.95-9.93-9.8-12.72,6.93-1.38,13-.38,19,1.12,11.1,2.75,19.9,9.23,27.78,17.14,5.6,5.62,11.83,10,19.73,11.72,6.59,1.45,12.41-.73,17.59-4.26,4.88-3.34,9.14-7.58,13.81-11.25a29.71,29.71,0,0,1,6.46-3.84c5.71-2.49,9.91.09,13.44,4.45a8.59,8.59,0,0,0,1.12,1.21,11.06,11.06,0,0,0,1.52.82c2.3-10.49,11.2-15.87,16.92-23.69l.85.57a21.51,21.51,0,0,1-1.76,2.88c-3.67,4.3-7.61,8.4-11.06,12.88-1.66,2.15-2.57,4.93-3.54,7.52-.22.57.62,1.71,1.22,2.36a32.92,32.92,0,0,0,3,2.72c-.06,0-.2.22-.35.23-4.92.45-5,.46-4.09,5.4.51,2.74,1.38,5.41,2.11,8.16-1.53-.17-1.57-.16-2.85-5.6-.53-2.28-.86-4.6-1.28-6.89-7,.07-14.51,4.64-15.7,11.83A116.67,116.67,0,0,0,183.73,99c-.29,6.83-.76,13.63-4.24,19.63a32,32,0,0,1-13.09,12.79A42.57,42.57,0,0,1,161,134.2c-6.45,2.22-12.95,4.26-19.83,6.5,0,4.6,0,9.69.08,14.77a2.34,2.34,0,0,0,1.67,1.57c14.42-.09,28.9,1.18,43.21-1.65a2.75,2.75,0,0,0,1.7-1.9c.23-2.15,0-4.34.12-6.51.06-1.85.86-2.91,3-2.89,8.88.07,17.76,0,26.64,0,2.61,0,3.72,1.2,3.7,3.82-.07,8.6-.11,17.2,0,25.79,0,2.68-1.21,3.55-3.55,3.56-9,0-17.95,0-26.92,0-2,0-2.94-.89-2.9-2.92C187.93,171.74,187.89,169.11,187.89,165.49Zm-50.95-25.37a48,48,0,0,0-5,.06c-.52,0-1.36.83-1.37,1.28-.1,5-.06,9.94-.06,15.15l6.43.29Z"/><path class="cls-3" d="M204.39,189.21c-4.81,0-9.62,0-14.43,0-3.34,0-5.42-1.56-5.19-4.08s1.22-4.55,5.32-4.54c9.53,0,19.06,0,28.59,0a5.4,5.4,0,0,1,5.24,3.13c1.25,2.58-1.06,5.41-4.53,5.49-5,.11-10,0-15,0Z"/><path class="cls-3" d="M204.59,140.56c-5,0-10,0-15,0-3.31,0-4.95-1.5-4.84-4.17s2-4.17,5.07-4.18q14.73,0,29.47,0c2.65,0,4.93,2.12,4.88,4.39-.06,2.52-1.71,3.93-4.82,4C214.42,140.59,209.5,140.56,204.59,140.56Z"/><path class="cls-3" d="M61.44,160.17c.6-2.07.76-4.48,2-6.1.78-1.06,3.23-1.53,4.7-1.21a4.82,4.82,0,0,1,3,3.23,34,34,0,0,1,.2,8.73c-.29,3-2,3.8-5.91,3.52-2.8-.2-3.27-2.11-3.36-4.34-.05-1.22,0-2.45,0-3.68Z"/><path class="cls-3" d="M233,29.31c.05,7.79-4,12.1-11.75,11.74C220.07,33.52,225.88,27.94,233,29.31Z"/><path class="cls-3" d="M203.36,56.07c-8.24-5.1-7.27-10.72-3.31-15.28C206.33,43.66,207.51,51,203.36,56.07Z"/><path class="cls-3" d="M209.17,30.74c6,3,7.46,7.81,4.4,13.76-.79,1.53-1.36,1.66-2.68.54C205.87,40.77,205.32,36.57,209.17,30.74Z"/><path class="cls-3" d="M223.91,62.2c-5.81,4.88-10.17,3.69-14-1.48C214.21,55.51,219.84,56.5,223.91,62.2Z"/><path class="cls-3" d="M232.38,50.33c-2.47,3.48-5.7,4.89-9.59,3.88-1.56-.41-2.87-1.73-4.3-2.64a17,17,0,0,1,2.95-2.93C225.6,46.15,228.86,46.73,232.38,50.33Z"/></g><rect class="cls-4" x="1" y="1" width="285.79" height="285.79" rx="50.18"/><text class="cls-5" transform="translate(33.41 252.83)">和平與正義制度</text></g></g></svg>