<svg xmlns="http://www.w3.org/2000/svg" viewBox="0 0 287.79 287.79"><defs><style>.cls-1,.cls-4{fill:none;stroke-miterlimit:10;}.cls-1{stroke:#f1c43a;stroke-width:2px;}.cls-2{font-size:33.45px;fill:#f1c43a;font-family:GenJyuuGothic-P-Medium, GenJyuuGothic P-Medium;font-weight:500;}.cls-3{fill:#f8c751;}.cls-4{stroke:#f8c751;}</style></defs><title>topic2</title><g id="圖層_2" data-name="圖層 2"><g id="圖層_1-2" data-name="圖層 1"><rect class="cls-1" x="1" y="1" width="285.79" height="285.79" rx="54.3"/><text class="cls-2" transform="translate(29.05 241.61)">責任消費與生產</text><path class="cls-3" d="M112,140c-2.12-2.11-4-4.21-6.11-6-1.82-1.55-1-2.32.59-2.8,4.83-1.43,9.7-2.74,14.56-4.09,3.45-1,6.91-1.89,10.36-2.85.58-.16,1.13-.41,1.71-.56,4.1-1.07,4.65-.5,3.93,3.6-1.57,8.92-3,17.87-4.54,26.8-.14.82-.4,1.63-.75,3-2.45-2-4.69-3.62-6.64-5.53-1.3-1.27-2.25-1-3.55-.2-2.7,1.61-5.41,3.23-8.23,4.6-10.33,5-21.1,5.55-32.28,3.49a48.61,48.61,0,0,1-17.6-7.28A46.69,46.69,0,0,1,48,135.45c-4.91-8.64-6.75-18-6.58-27.62s2.06-19.09,6.72-27.9A42.29,42.29,0,0,1,63.07,63.34c7.1-4.45,14.8-7.56,23.47-8,7.25-.39,14.36-.49,21.3,2a58.83,58.83,0,0,1,16.52,8.53,75.3,75.3,0,0,1,17.91,19.58c5.2,8.19,9.87,16.74,14.58,25.24,5.56,10.06,11.73,19.77,21.24,26.42,11.17,7.83,23.48,12.13,37.44,8.22,10.66-3,17.65-9.81,20.59-20.37a80.54,80.54,0,0,0,2.73-16.63A42.27,42.27,0,0,0,235.13,89a28.28,28.28,0,0,0-11.78-13.51c-7.07-4.17-14.61-6.45-22.72-6-3.93.22-7.85,1.6-11.66,2.79a35.56,35.56,0,0,0-15.57,10.3c-2.92,3.18-5.79,6.4-8.71,9.57-.67.73-1.46,1.36-2.46,2.28-2.58-4.45-5-8.62-7.51-13,4.45-5.83,9.32-11.33,15.55-15.5,2-1.32,3.86-2.79,5.91-4a51.28,51.28,0,0,1,26.91-7.12,54.34,54.34,0,0,1,23.08,5.33c8,3.93,15,9.36,19.53,17.24a58.36,58.36,0,0,1,7.84,26.24,69,69,0,0,1-3.86,28,46.63,46.63,0,0,1-8.92,14.56,43.44,43.44,0,0,1-16.58,11.8,46.79,46.79,0,0,1-23.92,3.26,65.17,65.17,0,0,1-20.71-6.29c-7.24-3.69-14.05-8.24-19.32-14.48a173.42,173.42,0,0,1-13.56-18.27c-3.25-5-5.42-10.79-8.35-16.06a122.43,122.43,0,0,0-7.94-12.52,94.6,94.6,0,0,0-10.27-12.36c-9.52-9.23-25-15.4-39.91-9.86C74,73.8,68.49,76.69,64.28,81.83c-4.69,5.73-6.4,12.57-7.4,19.67a47,47,0,0,0,2.17,23,32.64,32.64,0,0,0,5.34,9,33.33,33.33,0,0,0,14.28,10c6,2.33,12.25,2,18.51,1.84,4.81-.1,8.91-2.16,13.07-4.14A13.06,13.06,0,0,0,112,140Z"/><path class="cls-4" d="M107.87,144c-2.12-2.12-4-4.22-6.12-6-1.81-1.54-1-2.32.59-2.8,4.84-1.43,9.71-2.74,14.56-4.08l10.36-2.86c.58-.16,1.13-.41,1.71-.56,4.11-1.07,4.65-.49,3.93,3.6-1.56,8.93-3,17.87-4.53,26.81-.14.82-.4,1.62-.75,3-2.45-2-4.69-3.62-6.65-5.53-1.3-1.27-2.24-1-3.54-.19-2.7,1.61-5.41,3.23-8.24,4.6-10.32,5-21.09,5.55-32.28,3.48a48.38,48.38,0,0,1-17.59-7.28,46.6,46.6,0,0,1-15.45-16.68c-4.91-8.63-6.76-18-6.58-27.62S39.34,92.77,44,84A42.51,42.51,0,0,1,58.89,67.37c7.11-4.44,14.81-7.56,23.48-8,7.25-.4,14.36-.5,21.29,2a58.27,58.27,0,0,1,16.52,8.52A75.32,75.32,0,0,1,138.1,89.4c5.2,8.2,9.87,16.75,14.57,25.25,5.57,10,11.74,19.76,21.24,26.42,11.17,7.83,23.49,12.13,37.45,8.21,10.65-3,17.65-9.81,20.59-20.36a80.76,80.76,0,0,0,2.73-16.63A42.31,42.31,0,0,0,231,93a28.36,28.36,0,0,0-11.78-13.5c-7.07-4.17-14.61-6.46-22.73-6-3.93.23-7.84,1.6-11.66,2.79a35.63,35.63,0,0,0-15.57,10.31c-2.92,3.17-5.78,6.39-8.7,9.56-.68.73-1.46,1.36-2.47,2.29-2.57-4.45-5-8.63-7.51-13C155,79.66,159.87,74.16,166.1,70c2-1.32,3.85-2.79,5.91-4a51.18,51.18,0,0,1,26.91-7.11A54.11,54.11,0,0,1,222,64.24c8,3.92,15,9.35,19.54,17.23a58.39,58.39,0,0,1,7.83,26.25,68.9,68.9,0,0,1-3.85,28,46.66,46.66,0,0,1-8.93,14.56A43.37,43.37,0,0,1,220,162.12a46.69,46.69,0,0,1-23.92,3.26,65.13,65.13,0,0,1-20.72-6.28c-7.24-3.7-14-8.25-19.32-14.48a176.38,176.38,0,0,1-13.56-18.28c-3.25-5-5.41-10.78-8.35-16a118.19,118.19,0,0,0-7.94-12.53A95.87,95.87,0,0,0,115.94,85.4C106.42,76.18,91,70,76,75.55c-6.17,2.29-11.71,5.17-15.93,10.32-4.69,5.72-6.39,12.57-7.4,19.66a47.14,47.14,0,0,0,2.17,23.06,32.38,32.38,0,0,0,5.35,9,33.38,33.38,0,0,0,14.28,10c6,2.32,12.24,2,18.5,1.84,4.82-.11,8.92-2.16,13.08-4.15A13.53,13.53,0,0,0,107.87,144Z"/></g></g></svg>