<?xml version="1.0" encoding="utf-8"?>
<!-- Generator: Adobe Illustrator 19.0.0, SVG Export Plug-In . SVG Version: 6.00 Build 0)  -->
<svg version="1.1" id="圖層_1" xmlns="http://www.w3.org/2000/svg" xmlns:xlink="http://www.w3.org/1999/xlink" x="0px" y="0px"
	 viewBox="0 0 2552 2350" style="enable-background:new 0 0 2552 2350;" xml:space="preserve">
<style type="text/css">
	.st0{fill:#FFFDE9;}
	.st1{fill:#296B9B;}
	.st2{fill:#FA7D2B;}
</style>
<g id="XMLID_43_">
	<ellipse id="XMLID_27_" class="st0" cx="1276" cy="1146.1" rx="597.5" ry="600.8"/>
	<path id="XMLID_36_" class="st1" d="M622.9,1146.9c-0.6-360,292.1-653.3,652.3-653.9c359.9-0.6,653.3,292.1,654,652.3
		c0.6,359.7-292.3,653.4-652.3,654C917,1799.8,623.4,1507,622.9,1146.9z M1275.9,1715c313.2,0.1,568.3-254.5,569-567.9
		c0.6-313.9-254.8-569.8-568.8-569.8c-313.4,0-568.3,254.4-568.9,567.8C706.5,1459,961.8,1714.9,1275.9,1715z"/>
	<path id="XMLID_32_" class="st2" d="M1318.1,1188.2c0,86.7,0,170.9,0,255.2c0,5.9,0.2,11.7,0,17.6c-0.9,24.7-18.4,43-41.6,43.3
		c-23.9,0.3-42.5-18.2-42.5-43.9c-0.3-85.4-0.1-170.9-0.1-256.3c0-4.6,0-9.2,0-15.8c-7.5,0-13.8,0-20,0c-83.7,0-167.3,0.1-251-0.1
		c-24.7-0.1-42.7-15.8-44.9-38c-2-20.9,12.5-40.9,33.3-45.2c5.7-1.2,11.6-0.9,17.5-0.9c81.3-0.1,162.7,0,244,0c6.3,0,12.7,0,21.1,0
		c0-7.5,0-13.7,0-19.9c0-83.1-0.1-166.2,0-249.3c0-27.6,17-46.4,41.5-46.8c25.2-0.4,42.5,18.8,42.8,47.4c0,3.5,0,7,0,10.5
		c0,79,0,158,0,237c0,6.3,0,12.7,0,21.1c7.5,0,13.7,0,19.9,0c83.1,0,166.2-0.1,249.3,0c27.6,0,46.5,17.1,46.8,41.5
		c0.4,25.1-18.9,42.5-47.4,42.8c-3.5,0-7,0-10.5,0c-79,0-158,0-237,0C1332.9,1188.2,1326.6,1188.2,1318.1,1188.2z"/>
</g>
</svg>
