<?xml version="1.0" encoding="utf-8"?>
<!-- Generator: Adobe Illustrator 19.0.0, SVG Export Plug-In . SVG Version: 6.00 Build 0)  -->
<svg version="1.1" id="圖層_1" xmlns="http://www.w3.org/2000/svg" xmlns:xlink="http://www.w3.org/1999/xlink" x="0px" y="0px"
	 viewBox="0 0 2552 2350" style="enable-background:new 0 0 2552 2350;" xml:space="preserve">
<style type="text/css">
	.st0{fill:#FFFDE9;}
	.st1{fill:#FA7D2B;}
	.st2{fill:#296B9B;}
</style>
<g id="XMLID_44_">
	<ellipse id="XMLID_26_" class="st0" cx="1241" cy="1146.3" rx="597.5" ry="600.8"/>
	<path id="XMLID_40_" class="st1" d="M1042.8,1145.1c0-75.6,0-151.1,0-226.7c0-36.9,26.1-52.7,58.2-35.4
		c140.7,76.1,281.3,152.4,422,228.5c14.3,7.7,24.2,17.9,24.2,34.9c0,17-10.2,27.1-24.4,34.8c-140.3,75.8-280.5,151.8-420.7,227.7
		c-33,17.8-59.3,2-59.3-35.5C1042.7,1297.3,1042.8,1221.2,1042.8,1145.1z M1116,973.2c0,116.3,0,230.4,0,346.2
		c106.8-57.9,212-115,319.8-173.4C1327.8,1087.6,1222.6,1030.8,1116,973.2z"/>
	<path id="XMLID_46_" class="st2" d="M587.9,1146.9c-0.6-360,292.1-653.3,652.3-653.9c359.9-0.6,653.3,292.1,654,652.3
		c0.6,359.7-292.3,653.4-652.3,654C882,1799.8,588.5,1507,587.9,1146.9z M1240.9,1715c313.2,0.1,568.3-254.5,569-567.9
		c0.6-313.9-254.8-569.8-568.8-569.8c-313.4,0-568.3,254.4-568.9,567.8C671.6,1459,926.9,1714.9,1240.9,1715z"/>
</g>
</svg>
