<?xml version="1.0" encoding="utf-8"?>
<!-- Generator: Adobe Illustrator 19.0.0, SVG Export Plug-In . SVG Version: 6.00 Build 0)  -->
<svg version="1.1" id="圖層_1" xmlns="http://www.w3.org/2000/svg" xmlns:xlink="http://www.w3.org/1999/xlink" x="0px" y="0px"
	 viewBox="0 0 2552 2350" style="enable-background:new 0 0 2552 2350;" xml:space="preserve">
<style type="text/css">
	.st0{fill:#FFFDE9;}
	.st1{fill:#FA7D2B;}
	.st2{fill:#296B9B;}
</style>
<g id="XMLID_55_">
	<ellipse id="XMLID_56_" class="st0" cx="1276" cy="1262.3" rx="597.5" ry="600.8"/>
	<path id="XMLID_17_" class="st1" d="M1502.3,1178.5c-2.6-2.1-5.4-3.9-7.7-6.2c-67.6-67.4-135.2-134.7-202.6-202.2
		c-23.4-23.4-21.2-57.9,4.6-76.8c18.7-13.7,43.5-12.6,60.8,2.8c1.8,1.6,3.6,3.4,5.3,5.2c97.6,97.6,195.2,195.2,292.8,292.8
		c22.2,22.2,22.4,50.7,0.1,72.9c-98,98-196,196-294,294c-20.8,20.8-51.8,21.3-71.5,1.4c-19.7-19.9-19-50.6,2-71.5
		c67.4-67.5,134.9-135,202.4-202.4c2.3-2.3,5.1-4.2,7.6-6.3c-0.3-0.8-0.6-1.6-0.9-2.3c-3.1,0-6.2,0-9.3,0c-186.7,0-373.4,0-560.1,0
		c-26.8,0-46.6-15.8-51.4-40.8c-5.5-28.8,17-57,46.3-58.2c3-0.1,6-0.1,9.1-0.1c185.1,0,370.1,0,555.2,0c3.2,0,6.5,0,9.7,0
		C1501.3,1180.1,1501.8,1179.3,1502.3,1178.5z"/>
	<path id="XMLID_45_" class="st2" d="M622.9,1231.2c-0.6-360,292.1-653.3,652.3-653.9c359.9-0.6,653.3,292.1,654,652.3
		c0.6,359.7-292.3,653.4-652.3,654C917,1884.1,623.4,1591.3,622.9,1231.2z M1275.9,1799.2c313.2,0.1,568.3-254.5,569-567.9
		c0.6-313.9-254.8-569.8-568.8-569.8c-313.4,0-568.3,254.4-568.9,567.8C706.5,1543.3,961.8,1799.1,1275.9,1799.2z"/>
</g>
</svg>
