<?xml version="1.0" encoding="utf-8"?>
<!-- Generator: Adobe Illustrator 19.0.0, SVG Export Plug-In . SVG Version: 6.00 Build 0)  -->
<svg version="1.1" id="圖層_1" xmlns="http://www.w3.org/2000/svg" xmlns:xlink="http://www.w3.org/1999/xlink" x="0px" y="0px"
	 viewBox="0 0 2552 2350" style="enable-background:new 0 0 2552 2350;" xml:space="preserve">
<style type="text/css">
	.st0{fill:#FFFDE9;}
	.st1{fill:#FA7D2B;}
	.st2{fill:#296B9B;}
</style>
<g id="XMLID_54_">
	<ellipse id="XMLID_25_" class="st0" cx="1304.1" cy="1091" rx="597.5" ry="600.8"/>
	<path id="XMLID_33_" class="st1" d="M1424.7,949.7c2.7,0,5.1,0,7.4,0c54.7,0,109.4,0,164.2,0c48.9,0,87.3,38.5,87.5,87.5
		c0.1,17-3.5,32.9-11.4,48c-1,1.8-0.9,5.1,0.1,7c23.3,43.5,10.2,99.7-35.1,124.7c-1.5,0.8-3,3.7-2.8,5.5c3.2,39.9-10.5,71.2-46,91.4
		c-3.5,2-2.7,4.2-2.3,7c5.6,45.2-19.7,84.9-62.3,96.8c-7.9,2.2-16.4,3.3-24.6,3.4c-46.8,0.3-93.7-0.9-140.5,0.4
		c-77.4,2.1-152-10.8-224.3-37.8c-5.6-2.1-9.2-1.7-13.5,3c-7.8,8.5-18.2,11.8-29.6,11.9c-41.6,0.1-83.2,0.2-124.8,0
		c-24.9-0.2-42.4-18.1-42.4-43c0-111.2,0-222.4,0-333.6c0-25.2,17.8-43.1,42.9-43.1c41.1-0.1,82.3,0,123.4,0c9,0,17.2,2.2,24.9,6.9
		c1.7,1.1,4.7,1.8,6.3,1c23.7-11.3,47.2-22.9,67.9-39.5c15.5-12.4,27.4-27.4,35.5-45.6c16.5-37,26.4-75.9,32.7-115.7
		c1.4-8.8,2-17.8,3.8-26.6c6.7-34.1,38.7-56.7,73.2-52c52.9,7.1,82.3,40.1,96.2,88.8c14,49.2,12,98.1-4.9,146.5
		c-0.6,1.6-1.1,3.3-1.6,5C1424.6,947.9,1424.7,948.4,1424.7,949.7z M1134.4,1183.5c0,0-0.1,0-0.1,0c0,45.1,0,90.2,0,135.3
		c0,6.7-1.9,15.1,1.3,19.8c3,4.4,11.6,4.9,17.7,7.1c65.1,23.5,132,35.2,201.3,33.6c47.3-1.1,94.6-0.2,141.8-0.3
		c5,0,10.1-0.6,14.9-1.9c27.6-7.8,40.2-37.2,28.8-66.3c-5.9-15,0.3-26.6,15.9-30c17.1-3.7,28.2-14.3,34-30.5
		c4.4-12.5,3.2-24.9-1.5-37.2c-5.2-13.6,1.3-26.3,15.3-29.2c40-8.2,46.2-53.8,26.6-78.9c-10.3-13.3-10.1-19.9-0.1-33.3
		c12.3-16.7,14.8-35.1,6-53.9c-8.7-18.6-24.6-26-44.8-26c-66.1,0.2-132.2,0.1-198.3,0c-19,0-28.6-15.7-19.8-32.3
		c18.5-34.8,26.7-72,24.9-111.3c-1.2-25.7-6.8-50.3-22.2-71.7c-11.8-16.4-27.6-25.8-48.1-26.9c-13.8-0.7-23.9,8-25.4,21.8
		c-4.6,41.7-14.6,82.1-27.8,121.8c-17.1,51.3-50,88.5-97.5,113.3c-12.2,6.4-24.4,12.8-36.8,18.7c-4.6,2.2-6.2,4.7-6.2,9.9
		C1134.5,1084.5,1134.4,1134,1134.4,1183.5z M966.7,1356.3c41.8,0,83.1,0,124.9,0c0-111.8,0-223.2,0-335.1c-41.7,0-83.1,0-124.9,0
		C966.7,1132.9,966.7,1244.2,966.7,1356.3z"/>
	<path id="XMLID_51_" class="st2" d="M650.9,1091.8c-0.6-360,292.1-653.3,652.3-653.9c359.9-0.6,653.3,292.1,654,652.3
		c0.6,359.7-292.3,653.4-652.3,654C945,1744.7,651.5,1451.9,650.9,1091.8z M1303.9,1659.9c313.2,0.1,568.3-254.5,569-567.9
		c0.6-313.9-254.8-569.8-568.8-569.8c-313.4,0-568.3,254.4-568.9,567.8C734.6,1404,989.9,1659.8,1303.9,1659.9z"/>
</g>
</svg>
